<svg width="50" height="49" viewBox="0 0 50 49" fill="none" xmlns="http://www.w3.org/2000/svg">
<path d="M20 42.8572C20 46.0129 18.87 48.5715 15.7143 48.5715H5.7143C1.8239e-05 48.5715 1.8239e-05 28.5715 5.7143 28.5715H15.7143C18.87 28.5715 20 31.13 20 34.2858V42.8572Z" fill="#553788"/>
<path d="M47.1428 45.7143H45.7143V31.4286H47.1428C47.9328 31.4286 48.5714 30.79 48.5714 30C48.5714 29.21 47.9328 28.5715 47.1428 28.5715H12.8571C7.14284 28.5715 7.14284 48.5715 12.8571 48.5715H47.1428C47.9328 48.5715 48.5714 47.9329 48.5714 47.1429C48.5714 46.3529 47.9328 45.7143 47.1428 45.7143Z" fill="#9266CC"/>
<path d="M47.3885 45.7142H14.2856C11.4285 45.7142 11.4285 31.4285 14.2856 31.4285H47.3885C48.9656 31.4285 48.9656 45.7142 47.3885 45.7142Z" fill="#CCD6DD"/>
<path d="M14.9999 34.2857H48.357C48.1642 32.6071 47.8428 31.4285 47.3885 31.4285H14.2856C11.9271 31.4285 11.5171 41.1542 13.0528 44.5542C12.4928 40.3271 13.1413 34.2857 14.9999 34.2857Z" fill="#99AAB5"/>
<path d="M15.7143 10C15.7143 13.1557 13.1557 15.7143 9.99999 15.7143H4.28571C-1.42857 15.7143 -1.42857 0 4.28571 0H9.99999C13.1557 0 15.7143 2.55857 15.7143 5.71428V10Z" fill="#226699"/>
<path d="M42.8572 12.8571H41.4287V2.85714H42.8572C43.6472 2.85714 44.2858 2.21857 44.2858 1.42857C44.2858 0.638571 43.6472 0 42.8572 0H8.57154C2.85726 0 2.85726 15.7143 8.57154 15.7143H42.8572C43.6472 15.7143 44.2858 15.0757 44.2858 14.2857C44.2858 13.4957 43.6472 12.8571 42.8572 12.8571Z" fill="#55ACEE"/>
<path d="M43.1028 12.8571H9.99997C7.14283 12.8571 7.14283 2.85712 9.99997 2.85712H43.1028C44.68 2.85712 44.68 12.8571 43.1028 12.8571Z" fill="#CCD6DD"/>
<path d="M9.99984 5.71426H44.1784C44.0155 4.10712 43.6584 2.85712 43.1027 2.85712H9.99984C8.29555 2.85712 7.61555 6.41283 7.94555 9.28569C8.16841 7.34569 8.84698 5.71426 9.99984 5.71426Z" fill="#99AAB5"/>
<path d="M27.1429 22.8572C27.1429 26.0129 24.5843 28.5715 21.4286 28.5715H7.14289C1.42861 28.5715 1.42861 15.7144 7.14289 15.7144H21.4286C24.5843 15.7144 27.1429 18.2729 27.1429 21.4286V22.8572Z" fill="#F4900C"/>
<path d="M48.5714 25.7144H47.1428V18.5715H48.5714C49.3614 18.5715 49.9999 17.9329 49.9999 17.1429C49.9999 16.3529 49.3614 15.7144 48.5714 15.7144H19.9999C14.2857 15.7144 14.2857 28.5715 19.9999 28.5715H48.5714C49.3614 28.5715 49.9999 27.9329 49.9999 27.1429C49.9999 26.3529 49.3614 25.7144 48.5714 25.7144Z" fill="#FFAC33"/>
<path d="M48.8172 25.7143H21.4286C18.5715 25.7143 18.5715 18.5714 21.4286 18.5714H48.8172C50.3943 18.5714 50.3943 25.7143 48.8172 25.7143Z" fill="#CCD6DD"/>
<path d="M21.4286 21.4286H49.9771C49.8843 19.9114 49.5 18.5714 48.8171 18.5714H21.4286C19.6086 18.5714 18.9529 21.4671 19.4529 23.5714C19.7357 22.3728 20.3914 21.4286 21.4286 21.4286Z" fill="#99AAB5"/>
</svg>
